<?xml version="1.0" standalone="no"?>
<!DOCTYPE svg PUBLIC "-//W3C//DTD SVG 20010904//EN"
 "http://www.w3.org/TR/2001/REC-SVG-20010904/DTD/svg10.dtd">
<svg version="1.0" xmlns="http://www.w3.org/2000/svg"
 width="693.000000pt" height="693.000000pt" viewBox="0 0 693.000000 693.000000"
 preserveAspectRatio="xMidYMid meet">
<metadata>
Created by potrace 1.11, written by Peter Selinger 2001-2013
</metadata>
<g transform="translate(0.000000,693.000000) scale(0.100000,-0.100000)"
fill="#000000" stroke="none">
<path d="M1822 5435 c-171 -158 -359 -465 -517 -842 -32 -78 -53 -114 -67
-119 -11 -3 -22 -3 -26 1 -3 3 -7 41 -8 83 l-2 77 -221 3 -222 2 3 -116 3
-117 115 -33 c63 -18 158 -43 210 -54 52 -12 96 -22 98 -24 1 -2 -8 -32 -21
-67 l-24 -63 -59 -12 c-296 -60 -553 -260 -680 -529 -5 -11 -12 -308 -16 -690
-4 -368 -10 -740 -13 -825 -5 -121 -3 -172 9 -230 18 -86 71 -201 113 -246
142 -151 374 -152 716 -3 l88 39 2062 0 2062 0 100 -44 c174 -78 261 -99 405
-100 115 -1 129 1 182 26 170 80 244 244 242 543 -1 89 -6 162 -13 178 -8 21
-11 204 -11 664 l1 636 -40 67 c-118 199 -286 355 -467 435 -56 25 -180 60
-234 67 -20 2 -29 15 -52 77 -30 77 -28 90 14 91 21 0 274 64 341 86 l48 16
-3 111 -3 112 -220 0 -220 0 -5 -80 c-4 -71 -7 -80 -25 -80 -16 0 -33 32 -92
175 -89 217 -223 485 -303 609 -69 106 -162 205 -214 226 -31 13 -234 15
-1499 15 l-1465 0 -70 -65z m2053 -45 c288 -25 562 -73 805 -141 102 -28 151
-47 164 -62 28 -32 265 -520 324 -667 84 -208 100 -298 60 -324 -38 -24 -315
-115 -458 -151 -285 -71 -436 -100 -740 -140 -315 -42 -944 -46 -1277 -9 l-51
6 -1 77 c0 124 -44 226 -132 305 -21 20 -39 39 -39 42 0 3 16 24 35 47 75 87
97 228 53 344 -27 74 -114 163 -195 201 -52 24 -70 27 -163 27 -99 0 -110 -2
-172 -33 -84 -41 -158 -120 -188 -200 -18 -47 -21 -72 -18 -142 5 -93 23 -141
79 -205 l31 -35 -45 -40 c-49 -44 -97 -114 -118 -172 -7 -21 -18 -38 -25 -38
-11 0 -128 35 -331 99 -29 9 -53 19 -53 22 0 6 510 1051 516 1058 7 8 201 42
404 71 229 33 480 58 705 70 183 10 666 4 830 -10z m-2816 -1756 c64 -19 133
-79 166 -144 129 -255 -70 -604 -335 -588 -36 2 -81 12 -101 22 -54 25 -108
83 -138 146 -23 49 -26 67 -25 160 0 125 20 185 87 270 51 65 108 107 180 131
65 23 99 23 166 3z m4791 -21 c189 -92 281 -350 194 -543 -52 -116 -150 -177
-271 -168 -151 11 -282 134 -328 309 -39 146 11 312 115 384 88 61 189 67 290
18z m-430 -1298 c105 -54 101 -204 -6 -256 -72 -34 -142 -14 -185 54 -25 40
-22 121 7 160 39 53 124 73 184 42z m-3997 -30 c18 -8 43 -31 56 -50 20 -29
23 -44 19 -92 -4 -49 -10 -61 -41 -89 -61 -56 -130 -57 -192 -3 -99 87 -39
248 93 249 19 0 48 -7 65 -15z m-866 -305 c155 -165 351 -257 617 -292 l91
-11 -65 -30 c-364 -164 -635 -135 -744 80 -54 108 -82 275 -71 426 l7 87 45
-90 c33 -66 66 -113 120 -170z m4055 190 c44 -13 93 -65 109 -118 20 -69 -17
-153 -84 -190 -30 -16 -116 -17 -1217 -20 -652 -2 -1208 0 -1237 3 -68 8 -112
39 -142 98 -19 38 -22 56 -16 93 8 54 61 119 109 133 45 13 2431 14 2478 1z
m1714 -253 c-31 -178 -93 -277 -210 -337 -66 -33 -74 -35 -175 -35 -71 0 -130
6 -181 19 -77 20 -268 91 -285 107 -5 5 16 9 50 9 163 1 393 53 532 122 146
71 247 194 270 327 7 42 8 37 11 -42 1 -49 -4 -125 -12 -170z"/>
</g>
</svg>
